<svg id="Layer_1" xmlns="http://www.w3.org/2000/svg" viewBox="0 0 228 73.7"><style>.st0{fill:#fff}</style><g id="XMLID_1_"><path class="st0" d="M86.3 45.1V27.8h11.2v1.4H88v6.3h8.7v1.4H88v8.3h-1.7v-.1zM101.5 37.2v7.9h-1.6V27.8h6.8c1.9 0 3.4.4 4.4 1.1s1.5 1.9 1.5 3.5c0 1.1-.2 2-.7 2.6-.4.6-1.2 1.2-2.2 1.6.5.2.9.4 1.2.8.3.3.5.7.7 1.2.1.4.2.9.3 1.4 0 .5.1.9.1 1.4 0 .7 0 1.2.1 1.6 0 .4.1.8.1 1.1.1.3.1.5.2.6.1.2.2.3.3.4v.1h-1.8c-.2-.3-.3-.7-.4-1.2s-.1-1.1-.2-1.6c0-.6-.1-1.1-.1-1.6s-.1-1-.1-1.3c-.1-.5-.3-.8-.5-1.1s-.5-.5-.8-.6-.6-.2-1-.3c-.4 0-.8-.1-1.2-.1h-5.1v-.2zm5.1-1.4c.6 0 1.2-.1 1.7-.2s1-.3 1.4-.6.7-.6.9-1.1c.2-.4.3-1 .3-1.6 0-.6-.1-1.2-.4-1.6-.2-.4-.5-.7-.9-1-.4-.2-.8-.4-1.3-.5s-1-.1-1.6-.1h-5.2v6.7h5.1zM115.9 45.1V27.8h11.5v1.4h-9.9v6.3h8.9v1.4h-8.9v6.9h10.1v1.4h-11.7v-.1zM131.3 39.9c.1.8.2 1.4.5 2 .3.5.6 1 1.1 1.3.4.3 1 .6 1.5.7.6.2 1.2.2 1.9.2.8 0 1.4-.1 2-.3s1-.5 1.4-.8.6-.7.8-1.1c.2-.4.3-.9.3-1.4 0-.7-.2-1.2-.5-1.6-.3-.4-.7-.8-1.2-1-.5-.3-1.1-.5-1.7-.6-.6-.2-1.3-.3-2-.5s-1.3-.3-1.9-.5c-.6-.2-1.2-.5-1.7-.8-.5-.4-.9-.8-1.2-1.4-.3-.6-.5-1.3-.5-2.1 0-.6.1-1.2.4-1.7.2-.6.6-1.1 1.1-1.5s1.1-.8 1.8-1c.7-.3 1.6-.4 2.6-.4s1.8.1 2.6.4c.7.3 1.3.6 1.8 1.1s.8 1 1.1 1.7c.2.6.4 1.3.4 2h-1.6c0-.7-.1-1.2-.4-1.7-.2-.5-.6-.9-1-1.2-.4-.3-.9-.5-1.4-.7-.5-.1-1-.2-1.6-.2-.8 0-1.5.1-2.1.3-.6.2-1 .5-1.4.9-.3.4-.6.8-.7 1.2-.1.4-.2.9-.1 1.3.1.6.3 1 .7 1.3s.8.6 1.3.8 1.1.4 1.7.5 1.2.3 1.9.4c.6.2 1.3.3 1.9.5.6.2 1.1.5 1.6.8.5.4.8.8 1.1 1.4.3.6.4 1.2.4 2.1 0 1.6-.6 2.9-1.7 3.7-1.1.9-2.7 1.3-4.7 1.3-.9 0-1.7-.1-2.5-.3s-1.4-.6-2-1.1-1-1.1-1.3-1.8-.5-1.5-.5-2.5h1.8v.3zM145.3 45.1V27.8h1.6v7.4h10.3v-7.4h1.6v17.3h-1.6v-8.5H147v8.5h-1.7zM175 32.8c-.3-1.5-1-2.5-1.9-3.2-.9-.6-2.1-.9-3.6-.9-1 0-1.9.2-2.7.6s-1.4 1-1.9 1.7-.9 1.5-1.1 2.4c-.2.9-.4 1.9-.4 2.9s.1 1.9.3 2.8c.2.9.5 1.8 1 2.5s1.1 1.3 1.9 1.8c.8.4 1.8.7 3 .7.7 0 1.4-.1 2-.4.6-.2 1.1-.6 1.6-1s.8-.9 1.2-1.5c.3-.6.6-1.2.7-1.9h1.7c-.2.8-.5 1.6-.8 2.4-.4.7-.9 1.4-1.5 2s-1.3 1-2.2 1.3-1.9.5-3 .5c-1.3 0-2.5-.2-3.4-.7s-1.7-1.2-2.3-2-1-1.8-1.3-2.9c-.3-1.1-.4-2.3-.4-3.5 0-1.7.2-3.1.6-4.2.4-1.2 1-2.1 1.7-2.8.7-.7 1.6-1.3 2.6-1.6 1-.3 2-.5 3.2-.5.9 0 1.7.1 2.5.3.8.2 1.4.6 2 1 .6.5 1.1 1 1.4 1.7.4.7.6 1.5.8 2.4H175v.1zM179.5 36.5c0-1.3.2-2.5.5-3.6s.9-2.1 1.5-2.9c.7-.8 1.5-1.5 2.5-2s2.1-.7 3.4-.7c1.3 0 2.5.2 3.6.7 1 .5 1.9 1.1 2.6 2 .7.8 1.2 1.8 1.5 2.9.3 1.1.5 2.3.5 3.6s-.2 2.4-.5 3.5-.9 2.1-1.5 2.9c-.7.8-1.5 1.5-2.5 2s-2.2.7-3.5.7-2.5-.2-3.5-.7-1.9-1.1-2.5-2c-.7-.8-1.2-1.8-1.5-2.9s-.6-2.3-.6-3.5zm8 7.7c1.1 0 2.1-.2 2.9-.6.8-.4 1.5-1 2-1.7s.9-1.5 1.2-2.5c.2-.9.4-1.9.4-2.9 0-1.2-.1-2.3-.4-3.2-.3-1-.7-1.8-1.3-2.4s-1.2-1.2-2-1.5c-.8-.4-1.7-.5-2.7-.5-1.1 0-2.1.2-2.9.6-.8.4-1.5 1-2 1.7s-.9 1.5-1.2 2.5c-.2.9-.4 1.9-.4 2.9s.1 2 .4 2.9c.2.9.6 1.8 1.2 2.5.5.7 1.2 1.3 2 1.7.7.3 1.7.5 2.8.5zM198.9 45.1V27.8H206.2c.5 0 .9.1 1.4.2.4.1.9.2 1.3.4s.8.4 1.2.7c.6.4 1.1.9 1.4 1.5.4.6.7 1.2.9 1.9.2.7.4 1.3.5 2s.1 1.3.1 1.9c0 .6 0 1.2-.1 1.8s-.2 1.2-.3 1.7c-.2.6-.4 1.1-.6 1.6-.3.5-.6 1-1 1.4s-.8.8-1.3 1.1-1 .5-1.5.6c-.5.2-1.1.3-1.6.3-.6.1-1.1.1-1.7.1h-6v.1zm1.6-1.4h3.9c.7 0 1.4 0 2.1-.1.7-.1 1.3-.3 2-.7.6-.3 1.1-.7 1.4-1.2.4-.5.7-1 .9-1.6s.4-1.2.5-1.8.1-1.3.1-1.9c0-.6 0-1.3-.1-1.9-.1-.6-.2-1.3-.5-1.9-.2-.6-.5-1.1-.9-1.6s-.9-.9-1.5-1.2c-.5-.3-1.1-.4-1.8-.5s-1.4-.1-2.1-.1h-3.9l-.1 14.5zM216.3 45.1V27.8h11.5v1.4h-9.9v6.3h8.9v1.4h-8.9v6.9H228v1.4h-11.7v-.1z"/></g><g id="XMLID_69_"><path id="XMLID_73_" fill="#00e1a4" d="M49.2 20.4l-4 4 12.4 12.4-12.4 12.5 4 4 16.4-16.5z"/><path id="XMLID_72_" fill="#00ffab" d="M53.4 16.2l-4.2 4.2 16.4 16.4-16.4 16.5 4.2 4.2L74 36.8z"/><path id="XMLID_71_" fill="#00c9e8" d="M51.1 14.3l-6.6-6.6-29.2 29.1L44.5 66l-7.7 7.7 14.3-14.3-22.6-22.6z"/><path id="XMLID_70_" fill="#00e7ff" d="M15.3 36.8L44.5 7.7 36.8 0 0 36.8l36.8 36.9 7.7-7.7z"/></g></svg>