<svg xmlns="http://www.w3.org/2000/svg" width="23.969" height="24.34"><path d="M11.563 0H5.342a5.339 5.339 0 0 0-3.915 1.72A5.528 5.528 0 0 0-.006 5.44v13.32a5.742 5.742 0 0 0 .747 2.93 5.507 5.507 0 0 0 1.736 1.8 5.075 5.075 0 0 0 2.416.82 7.581 7.581 0 0 0 .829.02h12.447a7.785 7.785 0 0 0 1.779-.16 5.457 5.457 0 0 0 2.217-1.2 5.308 5.308 0 0 0 .831-.95 3.881 3.881 0 0 0 .458-.8 5.622 5.622 0 0 0 .4-1.23 6.318 6.318 0 0 0 .108-1.07v-6.33a1.161 1.161 0 1 0-2.321 0v6c0 .24 0 .49-.019.73v.04a4.756 4.756 0 0 1-.2.74v.01l-.007.02a5.455 5.455 0 0 1-.375.65l-.019.02a5.587 5.587 0 0 1-.527.54l-.024.02a5.16 5.16 0 0 1-.642.38l-.029.01a4.565 4.565 0 0 1-.731.2h-.016l-.016.01c-.276.02-.551.02-.817.02a1.34 1.34 0 0 0-.2-.01H5.681a6.354 6.354 0 0 1-.754-.01l-.016-.01h-.017a4.57 4.57 0 0 1-.729-.2l-.028-.01a5.1 5.1 0 0 1-.643-.38l-.024-.02a5.587 5.587 0 0 1-.527-.54l-.018-.02a5.464 5.464 0 0 1-.376-.65l-.006-.02-.006-.01a4.873 4.873 0 0 1-.2-.74v-.04c-.022-.28-.02-.56-.019-.83V5.77c0-.25 0-.51.018-.76v-.04a4.756 4.756 0 0 1 .2-.74l.006-.01.006-.02a5.464 5.464 0 0 1 .376-.65l.018-.02a3.964 3.964 0 0 1 .527-.54l.024-.02a5.1 5.1 0 0 1 .643-.38l.014-.01h.019a4.755 4.755 0 0 1 .742-.21h.03a11 11 0 0 1 1.146-.02h5.48A1.175 1.175 0 0 0 11.563 0zm11.246 8.49a1.185 1.185 0 0 0 1.16-1.18V1.18a1.17 1.17 0 0 0-.087-.44l-.01-.03a1.2 1.2 0 0 0-.243-.37 1.216 1.216 0 0 0-.362-.24l-.024-.01a1.089 1.089 0 0 0-.434-.09h-6.047a1.175 1.175 0 0 0 0 2.35h3.246l-8.825 8.96a1.2 1.2 0 0 0 0 1.66 1.148 1.148 0 0 0 1.641 0l8.824-8.95v3.29a1.186 1.186 0 0 0 1.161 1.18z" fill="#00e1a4" fill-rule="evenodd"/></svg>